<svg width="427" height="140" viewBox="0 0 427 140" fill="none" xmlns="http://www.w3.org/2000/svg">
<path d="M54.6 139.4C46.0667 139.4 38.6 137.333 32.2 133.2C25.8 128.933 20.8 123 17.2 115.4C13.7333 107.667 12 98.5333 12 88C12 76.9333 13.7333 67.6 17.2 60C20.6667 52.4 25.5333 46.6667 31.8 42.8C38.2 38.8 45.7333 36.8 54.4 36.8C63.2 36.8 71 39 77.8 43.4C84.6 47.6667 89.9333 53.6667 93.8 61.4C97.6667 69.1333 99.6 78 99.6 88C99.6 98 97.6667 106.933 93.8 114.8C90.0667 122.533 84.8 128.6 78 133C71.3333 137.267 63.5333 139.4 54.6 139.4ZM0.4 137V0.799989H29.6V66.4H27.8V112H29.6L22.2 137H0.4ZM49 112C55 112 59.9333 109.8 63.8 105.4C67.8 100.867 69.8 95.0667 69.8 88C69.8 81.0667 67.8 75.4 63.8 71C59.9333 66.4667 55 64.2 49 64.2C43.1333 64.2 38.2 66.4667 34.2 71C30.2 75.4 28.2 81.0667 28.2 88C28.2 95.0667 30.2 100.867 34.2 105.4C38.2 109.8 43.1333 112 49 112ZM127.281 39.2L134.881 66.2V137H105.681V39.2H127.281ZM128.481 82.4L123.481 80.2V57.6L125.281 55.2C126.881 52.9333 129.148 50.3333 132.081 47.4C135.148 44.4667 138.681 42 142.681 40C146.815 37.8667 151.015 36.8 155.281 36.8C157.415 36.8 159.348 36.9333 161.081 37.2C162.815 37.4667 164.215 37.9333 165.281 38.6V65.2H158.681C150.148 65.2 143.415 66.6 138.481 69.4C133.681 72.0667 130.348 76.4 128.481 82.4ZM210.217 138.8C200.484 138.8 191.884 136.733 184.417 132.6C177.084 128.467 171.351 122.6 167.217 115C163.217 107.4 161.217 98.4667 161.217 88.2C161.217 78.0667 163.217 69.1333 167.217 61.4C171.351 53.6667 177.084 47.6667 184.417 43.4C191.884 39 200.484 36.8 210.217 36.8C220.217 36.8 228.884 39.0667 236.217 43.6C243.551 48.1333 249.217 54.2667 253.217 62C257.217 69.6 259.217 78.2 259.217 87.8C259.217 89.5333 259.151 91.2 259.017 92.8C258.884 94.4 258.751 95.6667 258.617 96.6H184.017V75.8H236.217L232.817 84.4C232.817 77.0667 230.951 71.0667 227.217 66.4C223.617 61.7333 218.017 59.4 210.417 59.4C203.617 59.4 198.151 61.4667 194.017 65.6C190.017 69.7333 188.017 75.2 188.017 82V93C188.017 100.333 190.084 106.067 194.217 110.2C198.484 114.2 204.351 116.2 211.817 116.2C218.084 116.2 223.017 114.933 226.617 112.4C230.351 109.867 233.484 106.733 236.017 103L255.817 114C251.551 121.867 245.551 128 237.817 132.4C230.084 136.667 220.884 138.8 210.217 138.8ZM423.253 40.8C425.12 46.4 426.053 53.8667 426.053 63.2C426.053 72.4 424.92 81.2667 422.653 89.8C420.386 98.3333 416.92 106.467 412.253 114.2C407.72 121.8 401.32 128 393.053 132.8C384.92 137.467 375.52 139.8 364.853 139.8C348.853 139.8 338.186 135.333 332.853 126.4C323.253 135.333 312.52 139.8 300.653 139.8C284.653 139.8 273.653 136.4 267.653 129.6C263.653 125.067 261.653 118.333 261.653 109.4C261.653 104.733 262.186 99.5333 263.253 93.8L272.653 40.8H306.653L297.253 94C296.853 96 296.653 97.8 296.653 99.4C296.653 107 300.586 110.8 308.453 110.8C313.92 110.8 318.053 108.467 320.853 103.8C323.653 99 326.053 90.6667 328.053 78.8L334.853 40.8H368.853L359.453 94C359.053 96 358.853 97.8 358.853 99.4C358.853 107 362.786 110.8 370.653 110.8C384.52 110.8 391.453 96.2667 391.453 67.2C391.453 60.4 390.92 52.8667 389.853 44.6L389.253 40.8H423.253Z" fill="url(#paint0_linear_392_60)"/>
<defs>
<linearGradient id="paint0_linear_392_60" x1="-10" y1="75" x2="478" y2="75" gradientUnits="userSpaceOnUse">
<stop stop-color="#0197A5"/>
<stop offset="1" stop-color="#1A237E"/>
</linearGradient>
</defs>
</svg>
