<svg width="408" height="100" viewBox="0 0 408 100" fill="none" xmlns="http://www.w3.org/2000/svg">
<path d="M407.4 31.7147C407.672 34.7219 406.589 37.8224 404.192 40.9888C401.792 44.1582 398.097 47.3642 393.212 50.5573C383.442 56.9429 369.005 63.218 350.947 69.0294C314.838 80.6497 264.36 90.3825 208.074 95.4641C151.788 100.546 100.383 100.011 62.7767 95.046C43.9697 92.5629 28.6418 88.975 17.8866 84.4424C12.5086 82.176 8.29907 79.6836 5.37084 76.9951C2.44543 74.3093 0.824376 71.453 0.552877 68.4457C0.281378 65.4385 1.36464 62.338 3.7617 59.1717C6.16107 56.0022 9.85612 52.7962 14.7413 49.6032C24.5107 43.2176 38.9481 36.9424 57.0063 31.131C93.1148 19.5107 143.593 9.778 199.879 4.69639C256.165 -0.385221 307.571 0.149199 345.177 5.11441C363.984 7.59756 379.311 11.1854 390.067 15.718C395.445 17.9845 399.654 20.4769 402.582 23.1653C405.508 25.8512 407.129 28.7075 407.4 31.7147Z" stroke="#0A2770"/>
</svg>
