<svg width="919" height="629" viewBox="0 0 919 629" fill="none" xmlns="http://www.w3.org/2000/svg">
<path d="M455.155 477.378C457.52 479.86 461.48 479.86 463.845 477.378L908.404 10.6229C912.043 6.80299 909.335 0.484802 904.06 0.484802H14.9401C9.66484 0.484802 6.9572 6.80299 10.5954 10.6229L455.155 477.378Z" fill="url(#paint0_linear_4022_110)"/>
<rect x="338.125" y="354.933" width="242.751" height="127.007" fill="white"/>
<path d="M338.125 381.162H580.875V524.5L338.125 628.274V381.162Z" fill="#0197A5"/>
<path d="M306.151 205.152C302.055 205.152 298.471 204.16 295.399 202.176C292.327 200.128 289.927 197.28 288.199 193.632C286.535 189.92 285.703 185.536 285.703 180.48C285.703 175.168 286.535 170.688 288.199 167.04C289.863 163.392 292.199 160.64 295.207 158.784C298.279 156.864 301.895 155.904 306.055 155.904C310.279 155.904 314.023 156.96 317.287 159.072C320.551 161.12 323.111 164 324.967 167.712C326.823 171.424 327.751 175.68 327.751 180.48C327.751 185.28 326.823 189.568 324.967 193.344C323.175 197.056 320.647 199.968 317.383 202.08C314.183 204.128 310.439 205.152 306.151 205.152ZM280.135 204V138.624H294.151V170.112H293.287V192H294.151L290.599 204H280.135ZM303.463 192C306.343 192 308.711 190.944 310.567 188.832C312.487 186.656 313.447 183.872 313.447 180.48C313.447 177.152 312.487 174.432 310.567 172.32C308.711 170.144 306.343 169.056 303.463 169.056C300.647 169.056 298.279 170.144 296.359 172.32C294.439 174.432 293.479 177.152 293.479 180.48C293.479 183.872 294.439 186.656 296.359 188.832C298.279 190.944 300.647 192 303.463 192ZM341.038 157.056L344.686 170.016V204H330.67V157.056H341.038ZM341.614 177.792L339.214 176.736V165.888L340.078 164.736C340.846 163.648 341.934 162.4 343.342 160.992C344.814 159.584 346.51 158.4 348.43 157.44C350.414 156.416 352.43 155.904 354.478 155.904C355.502 155.904 356.43 155.968 357.262 156.096C358.094 156.224 358.766 156.448 359.278 156.768V169.536H356.11C352.014 169.536 348.782 170.208 346.414 171.552C344.11 172.832 342.51 174.912 341.614 177.792ZM380.847 204.864C376.175 204.864 372.047 203.872 368.463 201.888C364.943 199.904 362.191 197.088 360.207 193.44C358.287 189.792 357.327 185.504 357.327 180.576C357.327 175.712 358.287 171.424 360.207 167.712C362.191 164 364.943 161.12 368.463 159.072C372.047 156.96 376.175 155.904 380.847 155.904C385.647 155.904 389.807 156.992 393.327 159.168C396.847 161.344 399.567 164.288 401.487 168C403.407 171.648 404.367 175.776 404.367 180.384C404.367 181.216 404.335 182.016 404.271 182.784C404.207 183.552 404.143 184.16 404.079 184.608H368.271V174.624H393.327L391.695 178.752C391.695 175.232 390.799 172.352 389.007 170.112C387.279 167.872 384.591 166.752 380.943 166.752C377.679 166.752 375.055 167.744 373.071 169.728C371.151 171.712 370.191 174.336 370.191 177.6V182.88C370.191 186.4 371.183 189.152 373.167 191.136C375.215 193.056 378.031 194.016 381.615 194.016C384.623 194.016 386.991 193.408 388.719 192.192C390.511 190.976 392.015 189.472 393.231 187.68L402.735 192.96C400.687 196.736 397.807 199.68 394.095 201.792C390.383 203.84 385.967 204.864 380.847 204.864ZM483.105 157.824C484.001 160.512 484.449 164.096 484.449 168.576C484.449 172.992 483.905 177.248 482.817 181.344C481.729 185.44 480.065 189.344 477.825 193.056C475.649 196.704 472.577 199.68 468.609 201.984C464.705 204.224 460.193 205.344 455.073 205.344C447.393 205.344 442.273 203.2 439.713 198.912C435.105 203.2 429.953 205.344 424.257 205.344C416.577 205.344 411.297 203.712 408.417 200.448C406.497 198.272 405.537 195.04 405.537 190.752C405.537 188.512 405.793 186.016 406.305 183.264L410.817 157.824H427.137L422.625 183.36C422.433 184.32 422.337 185.184 422.337 185.952C422.337 189.6 424.225 191.424 428.001 191.424C430.625 191.424 432.609 190.304 433.953 188.064C435.297 185.76 436.449 181.76 437.409 176.064L440.673 157.824H456.993L452.481 183.36C452.289 184.32 452.193 185.184 452.193 185.952C452.193 189.6 454.081 191.424 457.857 191.424C464.513 191.424 467.841 184.448 467.841 170.496C467.841 167.232 467.585 163.616 467.073 159.648L466.785 157.824H483.105ZM488.931 204V157.056H499.299L502.179 166.368L497.379 165.984C498.979 164.128 500.803 162.432 502.851 160.896C504.899 159.36 507.139 158.144 509.571 157.248C512.003 156.352 514.531 155.904 517.155 155.904C520.291 155.904 522.787 156.448 524.643 157.536C526.563 158.56 528.003 160 528.963 161.856C529.987 163.712 530.659 165.824 530.979 168.192C531.363 170.496 531.555 172.896 531.555 175.392V204H517.539V176.16C517.539 173.472 517.059 171.712 516.099 170.88C515.139 169.984 513.955 169.536 512.547 169.536C510.563 169.536 508.611 170.144 506.691 171.36C504.771 172.512 503.043 174.016 501.507 175.872L499.011 168.768H502.947V204H488.931ZM546.147 204V176.16C546.147 173.472 545.667 171.712 544.707 170.88C543.811 169.984 542.659 169.536 541.251 169.536C539.203 169.536 537.219 170.144 535.299 171.36C533.379 172.512 531.651 174.016 530.115 175.872L525.987 165.984C527.651 164.128 529.507 162.432 531.555 160.896C533.603 159.36 535.811 158.144 538.179 157.248C540.611 156.352 543.139 155.904 545.763 155.904C548.899 155.904 551.427 156.448 553.347 157.536C555.267 158.56 556.707 160 557.667 161.856C558.627 163.712 559.299 165.824 559.683 168.192C560.067 170.496 560.259 172.896 560.259 175.392V204H546.147ZM579.833 205.248C576.441 205.248 573.433 204.608 570.809 203.328C568.249 201.984 566.265 200.128 564.857 197.76C563.449 195.392 562.745 192.64 562.745 189.504C562.745 186.176 563.513 183.36 565.049 181.056C566.585 178.688 568.633 176.864 571.193 175.584C573.817 174.304 576.729 173.664 579.929 173.664C584.601 173.664 588.377 174.72 591.257 176.832C594.137 178.944 596.057 181.984 597.017 185.952L590.969 184.896V173.952C590.969 172.224 590.361 170.72 589.145 169.44C587.929 168.16 585.977 167.52 583.289 167.52C581.561 167.52 579.577 167.744 577.337 168.192C575.097 168.576 572.793 169.344 570.425 170.496L566.297 160.512C569.113 159.104 572.121 157.984 575.321 157.152C578.585 156.32 581.913 155.904 585.305 155.904C589.657 155.904 593.305 156.672 596.249 158.208C599.193 159.744 601.369 161.92 602.777 164.736C604.249 167.552 604.985 170.816 604.985 174.528V204H593.561L590.777 194.88L597.017 192.96C595.993 196.8 594.041 199.808 591.161 201.984C588.281 204.16 584.505 205.248 579.833 205.248ZM584.153 195.264C586.265 195.264 587.929 194.72 589.145 193.632C590.425 192.544 591.065 191.168 591.065 189.504C591.065 187.712 590.425 186.304 589.145 185.28C587.929 184.256 586.265 183.744 584.153 183.744C582.041 183.744 580.377 184.256 579.161 185.28C577.945 186.304 577.337 187.712 577.337 189.504C577.337 191.168 577.945 192.544 579.161 193.632C580.377 194.72 582.041 195.264 584.153 195.264ZM624.647 204H610.631V157.056H624.647V204ZM609.383 142.272C609.383 139.776 610.119 137.76 611.591 136.224C613.127 134.688 615.143 133.92 617.639 133.92C620.135 133.92 622.119 134.688 623.591 136.224C625.127 137.76 625.895 139.776 625.895 142.272C625.895 144.704 625.127 146.688 623.591 148.224C622.119 149.696 620.135 150.432 617.639 150.432C615.143 150.432 613.127 149.696 611.591 148.224C610.119 146.688 609.383 144.704 609.383 142.272ZM644.126 204.48C641.758 204.48 639.582 204 637.598 203.04C635.614 202.08 634.014 200.608 632.798 198.624C631.582 196.576 630.974 193.856 630.974 190.464V138.624H644.894V185.472C644.894 187.84 645.31 189.376 646.142 190.08C647.038 190.72 648.158 191.04 649.502 191.04V204C648.862 204.128 647.998 204.224 646.91 204.288C645.886 204.416 644.958 204.48 644.126 204.48Z" fill="white"/>
<defs>
<linearGradient id="paint0_linear_4022_110" x1="459.5" y1="-160" x2="459.5" y2="481.939" gradientUnits="userSpaceOnUse">
<stop stop-color="#1A237E"/>
<stop offset="1" stop-color="#0197A5"/>
</linearGradient>
</defs>
</svg>
