<svg width="370" height="73" viewBox="0 0 370 73" fill="none" xmlns="http://www.w3.org/2000/svg">
<path d="M26.1511 72.152C22.0551 72.152 18.4711 71.16 15.3991 69.176C12.3271 67.128 9.92713 64.28 8.19913 60.632C6.53513 56.92 5.70313 52.536 5.70313 47.48C5.70313 42.168 6.53513 37.688 8.19913 34.04C9.86313 30.392 12.1991 27.64 15.2071 25.784C18.2791 23.864 21.8951 22.904 26.0551 22.904C30.2791 22.904 34.0231 23.96 37.2871 26.072C40.5511 28.12 43.1111 31 44.9671 34.712C46.8231 38.424 47.7511 42.68 47.7511 47.48C47.7511 52.28 46.8231 56.568 44.9671 60.344C43.1751 64.056 40.6471 66.968 37.3831 69.08C34.1831 71.128 30.4391 72.152 26.1511 72.152ZM0.135128 71V5.62399H14.1511V37.112H13.2871V59H14.1511L10.5991 71H0.135128ZM23.4631 59C26.3431 59 28.7111 57.944 30.5671 55.832C32.4871 53.656 33.4471 50.872 33.4471 47.48C33.4471 44.152 32.4871 41.432 30.5671 39.32C28.7111 37.144 26.3431 36.056 23.4631 36.056C20.6471 36.056 18.2791 37.144 16.3591 39.32C14.4391 41.432 13.4791 44.152 13.4791 47.48C13.4791 50.872 14.4391 53.656 16.3591 55.832C18.2791 57.944 20.6471 59 23.4631 59ZM61.0381 24.056L64.6861 37.016V71H50.6701V24.056H61.0381ZM61.6141 44.792L59.2141 43.736V32.888L60.0781 31.736C60.8461 30.648 61.9341 29.4 63.3421 27.992C64.8141 26.584 66.5101 25.4 68.4301 24.44C70.4141 23.416 72.4301 22.904 74.4781 22.904C75.5021 22.904 76.4301 22.968 77.2621 23.096C78.0941 23.224 78.7661 23.448 79.2781 23.768V36.536H76.1101C72.0141 36.536 68.7821 37.208 66.4141 38.552C64.1101 39.832 62.5101 41.912 61.6141 44.792ZM100.847 71.864C96.1754 71.864 92.0474 70.872 88.4634 68.888C84.9434 66.904 82.1914 64.088 80.2074 60.44C78.2874 56.792 77.3274 52.504 77.3274 47.576C77.3274 42.712 78.2874 38.424 80.2074 34.712C82.1914 31 84.9434 28.12 88.4634 26.072C92.0474 23.96 96.1754 22.904 100.847 22.904C105.647 22.904 109.807 23.992 113.327 26.168C116.847 28.344 119.567 31.288 121.487 35C123.407 38.648 124.367 42.776 124.367 47.384C124.367 48.216 124.335 49.016 124.271 49.784C124.207 50.552 124.143 51.16 124.079 51.608H88.2714V41.624H113.327L111.695 45.752C111.695 42.232 110.799 39.352 109.007 37.112C107.279 34.872 104.591 33.752 100.943 33.752C97.6794 33.752 95.0554 34.744 93.0714 36.728C91.1514 38.712 90.1914 41.336 90.1914 44.6V49.88C90.1914 53.4 91.1834 56.152 93.1674 58.136C95.2154 60.056 98.0314 61.016 101.615 61.016C104.623 61.016 106.991 60.408 108.719 59.192C110.511 57.976 112.015 56.472 113.231 54.68L122.735 59.96C120.687 63.736 117.807 66.68 114.095 68.792C110.383 70.84 105.967 71.864 100.847 71.864ZM203.105 24.824C204.001 27.512 204.449 31.096 204.449 35.576C204.449 39.992 203.905 44.248 202.817 48.344C201.729 52.44 200.065 56.344 197.825 60.056C195.649 63.704 192.577 66.68 188.609 68.984C184.705 71.224 180.193 72.344 175.073 72.344C167.393 72.344 162.273 70.2 159.713 65.912C155.105 70.2 149.953 72.344 144.257 72.344C136.577 72.344 131.297 70.712 128.417 67.448C126.497 65.272 125.537 62.04 125.537 57.752C125.537 55.512 125.793 53.016 126.305 50.264L130.817 24.824H147.137L142.625 50.36C142.433 51.32 142.337 52.184 142.337 52.952C142.337 56.6 144.225 58.424 148.001 58.424C150.625 58.424 152.609 57.304 153.953 55.064C155.297 52.76 156.449 48.76 157.409 43.064L160.673 24.824H176.993L172.481 50.36C172.289 51.32 172.193 52.184 172.193 52.952C172.193 56.6 174.081 58.424 177.857 58.424C184.513 58.424 187.841 51.448 187.841 37.496C187.841 34.232 187.585 30.616 187.073 26.648L186.785 24.824H203.105ZM208.931 71V24.056H219.299L222.179 33.368L217.379 32.984C218.979 31.128 220.803 29.432 222.851 27.896C224.899 26.36 227.139 25.144 229.571 24.248C232.003 23.352 234.531 22.904 237.155 22.904C240.291 22.904 242.787 23.448 244.643 24.536C246.563 25.56 248.003 27 248.963 28.856C249.987 30.712 250.659 32.824 250.979 35.192C251.363 37.496 251.555 39.896 251.555 42.392V71H237.539V43.16C237.539 40.472 237.059 38.712 236.099 37.88C235.139 36.984 233.955 36.536 232.547 36.536C230.563 36.536 228.611 37.144 226.691 38.36C224.771 39.512 223.043 41.016 221.507 42.872L219.011 35.768H222.947V71H208.931ZM266.147 71V43.16C266.147 40.472 265.667 38.712 264.707 37.88C263.811 36.984 262.659 36.536 261.251 36.536C259.203 36.536 257.219 37.144 255.299 38.36C253.379 39.512 251.651 41.016 250.115 42.872L245.987 32.984C247.651 31.128 249.507 29.432 251.555 27.896C253.603 26.36 255.811 25.144 258.179 24.248C260.611 23.352 263.139 22.904 265.763 22.904C268.899 22.904 271.427 23.448 273.347 24.536C275.267 25.56 276.707 27 277.667 28.856C278.627 30.712 279.299 32.824 279.683 35.192C280.067 37.496 280.259 39.896 280.259 42.392V71H266.147ZM299.833 72.248C296.441 72.248 293.433 71.608 290.809 70.328C288.249 68.984 286.265 67.128 284.857 64.76C283.449 62.392 282.745 59.64 282.745 56.504C282.745 53.176 283.513 50.36 285.049 48.056C286.585 45.688 288.633 43.864 291.193 42.584C293.817 41.304 296.729 40.664 299.929 40.664C304.601 40.664 308.377 41.72 311.257 43.832C314.137 45.944 316.057 48.984 317.017 52.952L310.969 51.896V40.952C310.969 39.224 310.361 37.72 309.145 36.44C307.929 35.16 305.977 34.52 303.289 34.52C301.561 34.52 299.577 34.744 297.337 35.192C295.097 35.576 292.793 36.344 290.425 37.496L286.297 27.512C289.113 26.104 292.121 24.984 295.321 24.152C298.585 23.32 301.913 22.904 305.305 22.904C309.657 22.904 313.305 23.672 316.249 25.208C319.193 26.744 321.369 28.92 322.777 31.736C324.249 34.552 324.985 37.816 324.985 41.528V71H313.561L310.777 61.88L317.017 59.96C315.993 63.8 314.041 66.808 311.161 68.984C308.281 71.16 304.505 72.248 299.833 72.248ZM304.153 62.264C306.265 62.264 307.929 61.72 309.145 60.632C310.425 59.544 311.065 58.168 311.065 56.504C311.065 54.712 310.425 53.304 309.145 52.28C307.929 51.256 306.265 50.744 304.153 50.744C302.041 50.744 300.377 51.256 299.161 52.28C297.945 53.304 297.337 54.712 297.337 56.504C297.337 58.168 297.945 59.544 299.161 60.632C300.377 61.72 302.041 62.264 304.153 62.264ZM344.647 71H330.631V24.056H344.647V71ZM329.383 9.272C329.383 6.776 330.119 4.76 331.591 3.224C333.127 1.688 335.143 0.919998 337.639 0.919998C340.135 0.919998 342.119 1.688 343.591 3.224C345.127 4.76 345.895 6.776 345.895 9.272C345.895 11.704 345.127 13.688 343.591 15.224C342.119 16.696 340.135 17.432 337.639 17.432C335.143 17.432 333.127 16.696 331.591 15.224C330.119 13.688 329.383 11.704 329.383 9.272ZM364.126 71.48C361.758 71.48 359.582 71 357.598 70.04C355.614 69.08 354.014 67.608 352.798 65.624C351.582 63.576 350.974 60.856 350.974 57.464V5.62399H364.894V52.472C364.894 54.84 365.31 56.376 366.142 57.08C367.038 57.72 368.158 58.04 369.502 58.04V71C368.862 71.128 367.998 71.224 366.91 71.288C365.886 71.416 364.958 71.48 364.126 71.48Z" fill="white"/>
</svg>
