<svg width="1059" height="789" viewBox="0 0 1059 789" fill="none" xmlns="http://www.w3.org/2000/svg">
<path d="M525.155 637.378C527.52 639.86 531.48 639.86 533.845 637.378L978.404 170.623C982.043 166.803 979.335 160.485 974.06 160.485H84.9402C79.6649 160.485 76.9573 166.803 80.5955 170.623L525.155 637.378Z" fill="url(#paint0_linear_4014_99)"/>
<rect x="408.125" y="514.933" width="242.751" height="127.007" fill="white"/>
<path d="M408.125 541.162H650.875V684.5L408.125 788.274V541.162Z" fill="#0197A5"/>
<path d="M376.151 365.152C372.055 365.152 368.471 364.16 365.399 362.176C362.327 360.128 359.927 357.28 358.199 353.632C356.535 349.92 355.703 345.536 355.703 340.48C355.703 335.168 356.535 330.688 358.199 327.04C359.863 323.392 362.199 320.64 365.207 318.784C368.279 316.864 371.895 315.904 376.055 315.904C380.279 315.904 384.023 316.96 387.287 319.072C390.551 321.12 393.111 324 394.967 327.712C396.823 331.424 397.751 335.68 397.751 340.48C397.751 345.28 396.823 349.568 394.967 353.344C393.175 357.056 390.647 359.968 387.383 362.08C384.183 364.128 380.439 365.152 376.151 365.152ZM350.135 364V298.624H364.151V330.112H363.287V352H364.151L360.599 364H350.135ZM373.463 352C376.343 352 378.711 350.944 380.567 348.832C382.487 346.656 383.447 343.872 383.447 340.48C383.447 337.152 382.487 334.432 380.567 332.32C378.711 330.144 376.343 329.056 373.463 329.056C370.647 329.056 368.279 330.144 366.359 332.32C364.439 334.432 363.479 337.152 363.479 340.48C363.479 343.872 364.439 346.656 366.359 348.832C368.279 350.944 370.647 352 373.463 352ZM411.038 317.056L414.686 330.016V364H400.67V317.056H411.038ZM411.614 337.792L409.214 336.736V325.888L410.078 324.736C410.846 323.648 411.934 322.4 413.342 320.992C414.814 319.584 416.51 318.4 418.43 317.44C420.414 316.416 422.43 315.904 424.478 315.904C425.502 315.904 426.43 315.968 427.262 316.096C428.094 316.224 428.766 316.448 429.278 316.768V329.536H426.11C422.014 329.536 418.782 330.208 416.414 331.552C414.11 332.832 412.51 334.912 411.614 337.792ZM450.847 364.864C446.175 364.864 442.047 363.872 438.463 361.888C434.943 359.904 432.191 357.088 430.207 353.44C428.287 349.792 427.327 345.504 427.327 340.576C427.327 335.712 428.287 331.424 430.207 327.712C432.191 324 434.943 321.12 438.463 319.072C442.047 316.96 446.175 315.904 450.847 315.904C455.647 315.904 459.807 316.992 463.327 319.168C466.847 321.344 469.567 324.288 471.487 328C473.407 331.648 474.367 335.776 474.367 340.384C474.367 341.216 474.335 342.016 474.271 342.784C474.207 343.552 474.143 344.16 474.079 344.608H438.271V334.624H463.327L461.695 338.752C461.695 335.232 460.799 332.352 459.007 330.112C457.279 327.872 454.591 326.752 450.943 326.752C447.679 326.752 445.055 327.744 443.071 329.728C441.151 331.712 440.191 334.336 440.191 337.6V342.88C440.191 346.4 441.183 349.152 443.167 351.136C445.215 353.056 448.031 354.016 451.615 354.016C454.623 354.016 456.991 353.408 458.719 352.192C460.511 350.976 462.015 349.472 463.231 347.68L472.735 352.96C470.687 356.736 467.807 359.68 464.095 361.792C460.383 363.84 455.967 364.864 450.847 364.864ZM553.105 317.824C554.001 320.512 554.449 324.096 554.449 328.576C554.449 332.992 553.905 337.248 552.817 341.344C551.729 345.44 550.065 349.344 547.825 353.056C545.649 356.704 542.577 359.68 538.609 361.984C534.705 364.224 530.193 365.344 525.073 365.344C517.393 365.344 512.273 363.2 509.713 358.912C505.105 363.2 499.953 365.344 494.257 365.344C486.577 365.344 481.297 363.712 478.417 360.448C476.497 358.272 475.537 355.04 475.537 350.752C475.537 348.512 475.793 346.016 476.305 343.264L480.817 317.824H497.137L492.625 343.36C492.433 344.32 492.337 345.184 492.337 345.952C492.337 349.6 494.225 351.424 498.001 351.424C500.625 351.424 502.609 350.304 503.953 348.064C505.297 345.76 506.449 341.76 507.409 336.064L510.673 317.824H526.993L522.481 343.36C522.289 344.32 522.193 345.184 522.193 345.952C522.193 349.6 524.081 351.424 527.857 351.424C534.513 351.424 537.841 344.448 537.841 330.496C537.841 327.232 537.585 323.616 537.073 319.648L536.785 317.824H553.105ZM558.931 364V317.056H569.299L572.179 326.368L567.379 325.984C568.979 324.128 570.803 322.432 572.851 320.896C574.899 319.36 577.139 318.144 579.571 317.248C582.003 316.352 584.531 315.904 587.155 315.904C590.291 315.904 592.787 316.448 594.643 317.536C596.563 318.56 598.003 320 598.963 321.856C599.987 323.712 600.659 325.824 600.979 328.192C601.363 330.496 601.555 332.896 601.555 335.392V364H587.539V336.16C587.539 333.472 587.059 331.712 586.099 330.88C585.139 329.984 583.955 329.536 582.547 329.536C580.563 329.536 578.611 330.144 576.691 331.36C574.771 332.512 573.043 334.016 571.507 335.872L569.011 328.768H572.947V364H558.931ZM616.147 364V336.16C616.147 333.472 615.667 331.712 614.707 330.88C613.811 329.984 612.659 329.536 611.251 329.536C609.203 329.536 607.219 330.144 605.299 331.36C603.379 332.512 601.651 334.016 600.115 335.872L595.987 325.984C597.651 324.128 599.507 322.432 601.555 320.896C603.603 319.36 605.811 318.144 608.179 317.248C610.611 316.352 613.139 315.904 615.763 315.904C618.899 315.904 621.427 316.448 623.347 317.536C625.267 318.56 626.707 320 627.667 321.856C628.627 323.712 629.299 325.824 629.683 328.192C630.067 330.496 630.259 332.896 630.259 335.392V364H616.147ZM649.833 365.248C646.441 365.248 643.433 364.608 640.809 363.328C638.249 361.984 636.265 360.128 634.857 357.76C633.449 355.392 632.745 352.64 632.745 349.504C632.745 346.176 633.513 343.36 635.049 341.056C636.585 338.688 638.633 336.864 641.193 335.584C643.817 334.304 646.729 333.664 649.929 333.664C654.601 333.664 658.377 334.72 661.257 336.832C664.137 338.944 666.057 341.984 667.017 345.952L660.969 344.896V333.952C660.969 332.224 660.361 330.72 659.145 329.44C657.929 328.16 655.977 327.52 653.289 327.52C651.561 327.52 649.577 327.744 647.337 328.192C645.097 328.576 642.793 329.344 640.425 330.496L636.297 320.512C639.113 319.104 642.121 317.984 645.321 317.152C648.585 316.32 651.913 315.904 655.305 315.904C659.657 315.904 663.305 316.672 666.249 318.208C669.193 319.744 671.369 321.92 672.777 324.736C674.249 327.552 674.985 330.816 674.985 334.528V364H663.561L660.777 354.88L667.017 352.96C665.993 356.8 664.041 359.808 661.161 361.984C658.281 364.16 654.505 365.248 649.833 365.248ZM654.153 355.264C656.265 355.264 657.929 354.72 659.145 353.632C660.425 352.544 661.065 351.168 661.065 349.504C661.065 347.712 660.425 346.304 659.145 345.28C657.929 344.256 656.265 343.744 654.153 343.744C652.041 343.744 650.377 344.256 649.161 345.28C647.945 346.304 647.337 347.712 647.337 349.504C647.337 351.168 647.945 352.544 649.161 353.632C650.377 354.72 652.041 355.264 654.153 355.264ZM694.647 364H680.631V317.056H694.647V364ZM679.383 302.272C679.383 299.776 680.119 297.76 681.591 296.224C683.127 294.688 685.143 293.92 687.639 293.92C690.135 293.92 692.119 294.688 693.591 296.224C695.127 297.76 695.895 299.776 695.895 302.272C695.895 304.704 695.127 306.688 693.591 308.224C692.119 309.696 690.135 310.432 687.639 310.432C685.143 310.432 683.127 309.696 681.591 308.224C680.119 306.688 679.383 304.704 679.383 302.272ZM714.126 364.48C711.758 364.48 709.582 364 707.598 363.04C705.614 362.08 704.014 360.608 702.798 358.624C701.582 356.576 700.974 353.856 700.974 350.464V298.624H714.894V345.472C714.894 347.84 715.31 349.376 716.142 350.08C717.038 350.72 718.158 351.04 719.502 351.04V364C718.862 364.128 717.998 364.224 716.91 364.288C715.886 364.416 714.958 364.48 714.126 364.48Z" fill="white"/>
<defs>
<linearGradient id="paint0_linear_4014_99" x1="529.5" y1="-6.10352e-05" x2="529.5" y2="641.939" gradientUnits="userSpaceOnUse">
<stop stop-color="#1A237E"/>
<stop offset="1" stop-color="#0197A5"/>
</linearGradient>
</defs>
</svg>
